REM DIRINDEX 1\2\4,1\2\5,1\2\6,1\2\7,1\3\8,1\3\9
REM DIRNAME cjc037,folder01,folder02,folder03,folder04,folder05,folder06,folder07,folder08
TITLE ""
FILE "Disc1Track11.mp3" MP3
  TRACK 01 AUDIO
    TITLE "0:"
    INDEX 01 00:00:00
  TRACK 02 AUDIO
    TITLE "4:cjc037_0589"
    INDEX 01 00:00:05
  TRACK 03 AUDIO
    TITLE "0:"
    INDEX 01 00:01:38
  TRACK 04 AUDIO
    TITLE "4:cjc037_0590"
    INDEX 01 00:02:38
  TRACK 05 AUDIO
    TITLE "0:"
    INDEX 01 00:04:19
  TRACK 06 AUDIO
    TITLE "5:cjc037_0591"
    INDEX 01 00:04:70
  TRACK 07 AUDIO
    TITLE "0:"
    INDEX 01 00:08:60
  TRACK 08 AUDIO
    TITLE "6:cjc037_0592"
    INDEX 01 00:12:22
  TRACK 09 AUDIO
    TITLE "0:"
    INDEX 01 00:15:56
  TRACK 10 AUDIO
    TITLE "7:cjc037_0593"
    INDEX 01 00:19:16
  TRACK 11 AUDIO
    TITLE "0:"
    INDEX 01 00:21:62
  TRACK 12 AUDIO
    TITLE "4:cjc037_0594"
    INDEX 01 00:24:22
  TRACK 13 AUDIO
    TITLE "0:"
    INDEX 01 00:26:05
  TRACK 14 AUDIO
    TITLE "5:cjc037_0595"
    INDEX 01 00:26:60
  TRACK 15 AUDIO
    TITLE "0:"
    INDEX 01 00:30:57
  TRACK 16 AUDIO
    TITLE "6:cjc037_0596"
    INDEX 01 00:34:20
  TRACK 17 AUDIO
    TITLE "0:"
    INDEX 01 00:37:24
  TRACK 18 AUDIO
    TITLE "7:cjc037_0597"
    INDEX 01 00:40:60
  TRACK 19 AUDIO
    TITLE "0:"
    INDEX 01 00:43:15
  TRACK 20 AUDIO
    TITLE "4:cjc037_0598"
    INDEX 01 00:45:53
  TRACK 21 AUDIO
    TITLE "0:"
    INDEX 01 00:47:44
  TRACK 22 AUDIO
    TITLE "5:cjc037_0599"
    INDEX 01 00:48:20
  TRACK 23 AUDIO
    TITLE "0:"
    INDEX 01 00:52:24
  TRACK 24 AUDIO
    TITLE "6:cjc037_0600"
    INDEX 01 00:55:59
  TRACK 25 AUDIO
    TITLE "0:"
    INDEX 01 00:59:06
  TRACK 26 AUDIO
    TITLE "7:cjc037_0601"
    INDEX 01 01:02:42
  TRACK 27 AUDIO
    TITLE "0:"
    INDEX 01 01:05:03
  TRACK 28 AUDIO
    TITLE "4:cjc037_0602"
    INDEX 01 01:07:37
  TRACK 29 AUDIO
    TITLE "0:"
    INDEX 01 01:09:16
  TRACK 30 AUDIO
    TITLE "5:cjc037_0603"
    INDEX 01 01:09:71
  TRACK 31 AUDIO
    TITLE "0:"
    INDEX 01 01:13:06
  TRACK 32 AUDIO
    TITLE "6:cjc037_0604"
    INDEX 01 01:16:42
  TRACK 33 AUDIO
    TITLE "0:"
    INDEX 01 01:19:30
  TRACK 34 AUDIO
    TITLE "7:cjc037_0605"
    INDEX 01 01:22:64
  TRACK 35 AUDIO
    TITLE "0:"
    INDEX 01 01:24:69
  TRACK 36 AUDIO
    TITLE "4:cjc037_0606"
    INDEX 01 01:27:28
  TRACK 37 AUDIO
    TITLE "0:"
    INDEX 01 01:29:11
  TRACK 38 AUDIO
    TITLE "5:cjc037_0607"
    INDEX 01 01:29:62
  TRACK 39 AUDIO
    TITLE "0:"
    INDEX 01 01:34:30
  TRACK 40 AUDIO
    TITLE "6:cjc037_0608"
    INDEX 01 01:37:64
  TRACK 41 AUDIO
    TITLE "0:"
    INDEX 01 01:40:72
  TRACK 42 AUDIO
    TITLE "7:cjc037_0609"
    INDEX 01 01:44:30
  TRACK 43 AUDIO
    TITLE "0:"
    INDEX 01 01:46:51
  TRACK 44 AUDIO
    TITLE "4:cjc037_0610"
    INDEX 01 01:49:10
  TRACK 45 AUDIO
    TITLE "0:"
    INDEX 01 01:50:47
  TRACK 46 AUDIO
    TITLE "5:cjc037_0611"
    INDEX 01 01:51:21
  TRACK 47 AUDIO
    TITLE "0:"
    INDEX 01 01:55:28
  TRACK 48 AUDIO
    TITLE "6:cjc037_0612"
    INDEX 01 01:58:62
  TRACK 49 AUDIO
    TITLE "0:"
    INDEX 01 02:02:66
  TRACK 50 AUDIO
    TITLE "7:cjc037_0613"
    INDEX 01 02:06:22
  TRACK 51 AUDIO
    TITLE "0:"
    INDEX 01 02:09:19
  TRACK 52 AUDIO
    TITLE "4:cjc037_0614"
    INDEX 01 02:11:51
  TRACK 53 AUDIO
    TITLE "0:"
    INDEX 01 02:13:20
  TRACK 54 AUDIO
    TITLE "5:cjc037_0615"
    INDEX 01 02:13:71
  TRACK 55 AUDIO
    TITLE "0:"
    INDEX 01 02:17:32
  TRACK 56 AUDIO
    TITLE "6:cjc037_0616"
    INDEX 01 02:20:65
  TRACK 57 AUDIO
    TITLE "0:"
    INDEX 01 02:23:38
  TRACK 58 AUDIO
    TITLE "7:cjc037_0617"
    INDEX 01 02:26:72
  TRACK 59 AUDIO
    TITLE "0:"
    INDEX 01 02:28:63
  TRACK 60 AUDIO
    TITLE "4:cjc037_0618"
    INDEX 01 02:31:22
  TRACK 61 AUDIO
    TITLE "0:"
    INDEX 01 02:32:72
  TRACK 62 AUDIO
    TITLE "5:cjc037_0619"
    INDEX 01 02:33:46
  TRACK 63 AUDIO
    TITLE "0:"
    INDEX 01 02:38:16
  TRACK 64 AUDIO
    TITLE "6:cjc037_0620"
    INDEX 01 02:41:50
  TRACK 65 AUDIO
    TITLE "0:"
    INDEX 01 02:46:47
  TRACK 66 AUDIO
    TITLE "7:cjc037_0621"
    INDEX 01 02:50:06
  TRACK 67 AUDIO
    TITLE "0:"
    INDEX 01 02:53:39
  TRACK 68 AUDIO
    TITLE "4:cjc037_0622"
    INDEX 01 02:55:74
  TRACK 69 AUDIO
    TITLE "0:"
    INDEX 01 02:57:57
  TRACK 70 AUDIO
    TITLE "5:cjc037_0623"
    INDEX 01 02:58:31
  TRACK 71 AUDIO
    TITLE "0:"
    INDEX 01 03:02:11
  TRACK 72 AUDIO
    TITLE "6:cjc037_0624"
    INDEX 01 03:05:45
  TRACK 73 AUDIO
    TITLE "0:"
    INDEX 01 03:08:53
  TRACK 74 AUDIO
    TITLE "7:cjc037_0625"
    INDEX 01 03:12:13
  TRACK 75 AUDIO
    TITLE "0:"
    INDEX 01 03:14:42
  TRACK 76 AUDIO
    TITLE "4:cjc037_0626"
    INDEX 01 03:17:01
  TRACK 77 AUDIO
    TITLE "0:"
    INDEX 01 03:18:53
  TRACK 78 AUDIO
    TITLE "5:cjc037_0627"
    INDEX 01 03:19:27
  TRACK 79 AUDIO
    TITLE "0:"
    INDEX 01 03:23:23
  TRACK 80 AUDIO
    TITLE "6:cjc037_0628"
    INDEX 01 03:26:54
  TRACK 81 AUDIO
    TITLE "0:"
    INDEX 01 03:30:39
  TRACK 82 AUDIO
    TITLE "7:cjc037_0629"
    INDEX 01 03:33:74
  TRACK 83 AUDIO
    TITLE "0:"
    INDEX 01 03:36:63
  TRACK 84 AUDIO
    TITLE "4:cjc037_0630"
    INDEX 01 03:39:22
  TRACK 85 AUDIO
    TITLE "0:"
    INDEX 01 03:40:72
  TRACK 86 AUDIO
    TITLE "5:cjc037_0631"
    INDEX 01 03:41:52
  TRACK 87 AUDIO
    TITLE "0:"
    INDEX 01 03:45:34
  TRACK 88 AUDIO
    TITLE "6:cjc037_0632"
    INDEX 01 03:48:68
  TRACK 89 AUDIO
    TITLE "0:"
    INDEX 01 03:53:10
  TRACK 90 AUDIO
    TITLE "7:cjc037_0633"
    INDEX 01 03:56:44
  TRACK 91 AUDIO
    TITLE "0:"
    INDEX 01 03:59:48
  TRACK 92 AUDIO
    TITLE "4:cjc037_0634"
    INDEX 01 04:02:09
  TRACK 93 AUDIO
    TITLE "0:"
    INDEX 01 04:03:67
  TRACK 94 AUDIO
    TITLE "5:cjc037_0635"
    INDEX 01 04:04:41
  TRACK 95 AUDIO
    TITLE "0:"
    INDEX 01 04:08:35
  TRACK 96 AUDIO
    TITLE "6:cjc037_0636"
    INDEX 01 04:11:71
  TRACK 97 AUDIO
    TITLE "0:"
    INDEX 01 04:15:47
  TRACK 98 AUDIO
    TITLE "7:cjc037_0637"
    INDEX 01 04:19:06
  TRACK 99 AUDIO
    TITLE "0:"
    INDEX 01 04:22:00
  TRACK 100 AUDIO
    TITLE "4:cjc037_0638"
    INDEX 01 04:24:32
  TRACK 101 AUDIO
    TITLE "0:"
    INDEX 01 04:26:14
  TRACK 102 AUDIO
    TITLE "5:cjc037_0639"
    INDEX 01 04:26:65
  TRACK 103 AUDIO
    TITLE "0:"
    INDEX 01 04:33:06
  TRACK 104 AUDIO
    TITLE "6:cjc037_0640"
    INDEX 01 04:36:39
  TRACK 105 AUDIO
    TITLE "0:"
    INDEX 01 04:40:27
  TRACK 106 AUDIO
    TITLE "7:cjc037_0641"
    INDEX 01 04:43:61
  TRACK 107 AUDIO
    TITLE "0:"
    INDEX 01 04:46:44
  TRACK 108 AUDIO
    TITLE "4:cjc037_0642"
    INDEX 01 04:49:03
  TRACK 109 AUDIO
    TITLE "0:"
    INDEX 01 04:50:65
  TRACK 110 AUDIO
    TITLE "5:cjc037_0643"
    INDEX 01 04:51:45
  TRACK 111 AUDIO
    TITLE "0:"
    INDEX 01 04:56:70
  TRACK 112 AUDIO
    TITLE "6:cjc037_0644"
    INDEX 01 05:00:28
  TRACK 113 AUDIO
    TITLE "0:"
    INDEX 01 05:04:16
  TRACK 114 AUDIO
    TITLE "7:cjc037_0645"
    INDEX 01 05:07:50
  TRACK 115 AUDIO
    TITLE "0:"
    INDEX 01 05:10:42
  TRACK 116 AUDIO
    TITLE "4:cjc037_0646"
    INDEX 01 05:12:74
  TRACK 117 AUDIO
    TITLE "0:"
    INDEX 01 05:14:58
  TRACK 118 AUDIO
    TITLE "5:cjc037_0647"
    INDEX 01 05:15:38
  TRACK 119 AUDIO
    TITLE "0:"
    INDEX 01 05:19:47
  TRACK 120 AUDIO
    TITLE "6:cjc037_0648"
    INDEX 01 05:23:06
  TRACK 121 AUDIO
    TITLE "0:"
    INDEX 01 05:26:06
  TRACK 122 AUDIO
    TITLE "7:cjc037_0649"
    INDEX 01 05:29:42
  TRACK 123 AUDIO
    TITLE "0:"
    INDEX 01 05:31:60
  TRACK 124 AUDIO
    TITLE "4:cjc037_0650"
    INDEX 01 05:34:19
  TRACK 125 AUDIO
    TITLE "0:"
    INDEX 01 05:35:62
  TRACK 126 AUDIO
    TITLE "5:cjc037_0651"
    INDEX 01 05:36:38
  TRACK 127 AUDIO
    TITLE "0:"
    INDEX 01 05:39:60
  TRACK 128 AUDIO
    TITLE "6:cjc037_0652"
    INDEX 01 05:43:18
  TRACK 129 AUDIO
    TITLE "0:"
    INDEX 01 05:45:54
  TRACK 130 AUDIO
    TITLE "7:cjc037_0653"
    INDEX 01 05:49:13
  TRACK 131 AUDIO
    TITLE "0:"
    INDEX 01 05:51:14
  TRACK 132 AUDIO
    TITLE "4:cjc037_0654"
    INDEX 01 05:53:48
  TRACK 133 AUDIO
    TITLE "0:"
    INDEX 01 05:55:39
  TRACK 134 AUDIO
    TITLE "5:cjc037_0655"
    INDEX 01 05:56:11
  TRACK 135 AUDIO
    TITLE "0:"
    INDEX 01 06:00:40
  TRACK 136 AUDIO
    TITLE "6:cjc037_0656"
    INDEX 01 06:04:03
  TRACK 137 AUDIO
    TITLE "0:"
    INDEX 01 06:08:06
  TRACK 138 AUDIO
    TITLE "7:cjc037_0657"
    INDEX 01 06:11:40
  TRACK 139 AUDIO
    TITLE "0:"
    INDEX 01 06:14:44
  TRACK 140 AUDIO
    TITLE "4:cjc037_0658"
    INDEX 01 06:17:03
  TRACK 141 AUDIO
    TITLE "0:"
    INDEX 01 06:18:64
  TRACK 142 AUDIO
    TITLE "5:cjc037_0659"
    INDEX 01 06:19:41
  TRACK 143 AUDIO
    TITLE "0:"
    INDEX 01 06:23:35
  TRACK 144 AUDIO
    TITLE "6:cjc037_0660"
    INDEX 01 06:26:69
  TRACK 145 AUDIO
    TITLE "0:"
    INDEX 01 06:30:18
  TRACK 146 AUDIO
    TITLE "7:cjc037_0661"
    INDEX 01 06:33:51
  TRACK 147 AUDIO
    TITLE "0:"
    INDEX 01 06:36:07
  TRACK 148 AUDIO
    TITLE "4:cjc037_0662"
    INDEX 01 06:38:39
  TRACK 149 AUDIO
    TITLE "0:"
    INDEX 01 06:40:32
  TRACK 150 AUDIO
    TITLE "5:cjc037_0663"
    INDEX 01 06:41:04
  TRACK 151 AUDIO
    TITLE "0:"
    INDEX 01 06:46:25
  TRACK 152 AUDIO
    TITLE "6:cjc037_0664"
    INDEX 01 06:49:58
  TRACK 153 AUDIO
    TITLE "0:"
    INDEX 01 06:55:29
  TRACK 154 AUDIO
    TITLE "7:cjc037_0665"
    INDEX 01 06:58:65
  TRACK 155 AUDIO
    TITLE "0:"
    INDEX 01 07:02:63
  TRACK 156 AUDIO
    TITLE "4:cjc037_0666"
    INDEX 01 07:05:22
  TRACK 157 AUDIO
    TITLE "0:"
    INDEX 01 07:07:21
  TRACK 158 AUDIO
    TITLE "5:cjc037_0667"
    INDEX 01 07:07:70
  TRACK 159 AUDIO
    TITLE "0:"
    INDEX 01 07:13:51
  TRACK 160 AUDIO
    TITLE "6:cjc037_0668"
    INDEX 01 07:17:13
  TRACK 161 AUDIO
    TITLE "0:"
    INDEX 01 07:21:58
  TRACK 162 AUDIO
    TITLE "7:cjc037_0669"
    INDEX 01 07:25:17
  TRACK 163 AUDIO
    TITLE "0:"
    INDEX 01 07:28:50
  TRACK 164 AUDIO
    TITLE "4:cjc037_0670"
    INDEX 01 07:31:08
  TRACK 165 AUDIO
    TITLE "0:"
    INDEX 01 07:32:62
  TRACK 166 AUDIO
    TITLE "5:cjc037_0671"
    INDEX 01 07:33:42
  TRACK 167 AUDIO
    TITLE "0:"
    INDEX 01 07:37:30
  TRACK 168 AUDIO
    TITLE "6:cjc037_0672"
    INDEX 01 07:40:65
  TRACK 169 AUDIO
    TITLE "0:"
    INDEX 01 07:44:02
  TRACK 170 AUDIO
    TITLE "7:cjc037_0673"
    INDEX 01 07:47:38
  TRACK 171 AUDIO
    TITLE "0:"
    INDEX 01 07:49:72
  TRACK 172 AUDIO
    TITLE "4:cjc037_0674"
    INDEX 01 07:52:29
  TRACK 173 AUDIO
    TITLE "0:"
    INDEX 01 07:54:18
  TRACK 174 AUDIO
    TITLE "5:cjc037_0675"
    INDEX 01 07:54:66
  TRACK 175 AUDIO
    TITLE "0:"
    INDEX 01 07:59:63
  TRACK 176 AUDIO
    TITLE "6:cjc037_0676"
    INDEX 01 08:03:21
  TRACK 177 AUDIO
    TITLE "0:"
    INDEX 01 08:07:41
  TRACK 178 AUDIO
    TITLE "7:cjc037_0677"
    INDEX 01 08:10:74
  TRACK 179 AUDIO
    TITLE "0:"
    INDEX 01 08:14:21
  TRACK 180 AUDIO
    TITLE "4:cjc037_0678"
    INDEX 01 08:16:53
  TRACK 181 AUDIO
    TITLE "0:"
    INDEX 01 08:18:39
  TRACK 182 AUDIO
    TITLE "5:cjc037_0679"
    INDEX 01 08:19:20
  TRACK 183 AUDIO
    TITLE "0:"
    INDEX 01 08:23:18
  TRACK 184 AUDIO
    TITLE "6:cjc037_0680"
    INDEX 01 08:26:60
  TRACK 185 AUDIO
    TITLE "0:"
    INDEX 01 08:31:12
  TRACK 186 AUDIO
    TITLE "7:cjc037_0681"
    INDEX 01 08:34:47
  TRACK 187 AUDIO
    TITLE "0:"
    INDEX 01 08:38:02
  TRACK 188 AUDIO
    TITLE "4:cjc037_0682"
    INDEX 01 08:40:38
  TRACK 189 AUDIO
    TITLE "0:"
    INDEX 01 08:42:35
  TRACK 190 AUDIO
    TITLE "5:cjc037_0683"
    INDEX 01 08:43:11
  TRACK 191 AUDIO
    TITLE "0:"
    INDEX 01 08:47:70
  TRACK 192 AUDIO
    TITLE "6:cjc037_0684"
    INDEX 01 08:51:30
  TRACK 193 AUDIO
    TITLE "0:"
    INDEX 01 08:55:55
  TRACK 194 AUDIO
    TITLE "7:cjc037_0685"
    INDEX 01 08:59:14
  TRACK 195 AUDIO
    TITLE "0:"
    INDEX 01 09:02:46
  TRACK 196 AUDIO
    TITLE "4:cjc037_0686"
    INDEX 01 09:05:05
  TRACK 197 AUDIO
    TITLE "0:"
    INDEX 01 09:06:67
  TRACK 198 AUDIO
    TITLE "5:cjc037_0687"
    INDEX 01 09:07:39
  TRACK 199 AUDIO
    TITLE "0:"
    INDEX 01 09:11:50
  TRACK 200 AUDIO
    TITLE "6:cjc037_0688"
    INDEX 01 09:15:11
  TRACK 201 AUDIO
    TITLE "0:"
    INDEX 01 09:19:11
  TRACK 202 AUDIO
    TITLE "7:cjc037_0689"
    INDEX 01 09:22:44
  TRACK 203 AUDIO
    TITLE "0:"
    INDEX 01 09:25:53
